<?xml version="1.0" encoding="utf-8"?>
<!-- Generator: Adobe Illustrator 26.5.0, SVG Export Plug-In . SVG Version: 6.00 Build 0)  -->
<svg version="1.1" id="Layer_1" xmlns="http://www.w3.org/2000/svg" xmlns:xlink="http://www.w3.org/1999/xlink" x="0px" y="0px"
	 viewBox="0 0 800 300" style="enable-background:new 0 0 800 300;" xml:space="preserve">
<style type="text/css">
	.st0{fill:#FFFFFF;}
	.st1{fill:#E73A46;}
</style>
<path class="st0" d="M215.9,95.9c-15.8,0-28.7,6.7-37.4,17.3V98l-20.8,0v104h20.8v-52c0-23.3,19.5-35.8,38.2-35.8
	c0.3,0,12.6-16.4,12.6-16.4C224.4,96.3,220,95.9,215.9,95.9 M330.9,153.5h-86.5c1.2,19.8,15.8,33.9,34.1,33.9c9.8,0,18.6-3.1,25.3-9
	c0.4-0.3,0.7-0.7,1.1-1.1l20.2,1.2c-1.8,3.2-4,6.2-6.4,8.9c-9.4,10.5-23.3,16.9-41.2,16.9c-30.8,0-53.8-23.9-53.8-54.3
	c0-30.4,22.5-54.1,54.5-54.3C312.2,95.7,332.1,119.8,330.9,153.5 M310.7,139.2c-0.6-15.2-14.3-27.2-31.4-27.2
	c-17.3,0-30.3,10.4-34.1,27.2H310.7z M402.9,95.7c-16.8,0-27.9,7.5-34.9,17.3V98l-20.8-0.1V202H368v-54.5c0-18.3,12.5-33.9,32-33.9
	c18.1,0,28.7,12.9,28.7,32.7V202l20.8,0v-56.6C449.5,114.4,432.2,95.7,402.9,95.7 M573.7,150c0,30.2-23.1,54.1-54.9,54.1
	c-31.6,0-54.9-23.9-54.9-54.1c0-30.4,23.1-54.3,54.9-54.3C550.8,95.7,573.7,119.8,573.7,150 M552.9,150c0-20.2-15.2-37-34.1-37
	c-18.9,0-34.1,16.8-34.1,37c0,20.2,15.2,37,34.1,37C537.7,187,552.9,170.2,552.9,150 M786,150c0,30.2-23.1,54.1-54.9,54.1
	c-31.6,0-54.9-23.9-54.9-54.1c0-30.4,23.1-54.3,54.9-54.3C763.1,95.7,786,119.8,786,150 M765.2,150c0-20.2-15.2-37-34.1-37
	S697,129.8,697,150c0,20.2,15.2,37,34.1,37S765.2,170.2,765.2,150"/>
<polygon class="st1" points="631,98 575,98 603,155.4 "/>
<polygon class="st0" points="653.8,98 614.3,178.7 625.8,202.1 676.6,98 "/>
<path class="st0" d="M52.8,117.6L28.6,95.7l-6.7,7.4l26.1,23.7C49.3,123.5,50.9,120.4,52.8,117.6 M117,109l6.2-5.6l-6.6-7.4
	l-8.1,7.3C111.5,104.9,114.4,106.8,117,109 M45.3,142.1c0-0.7,0-1.4,0.1-2.2l-36.8,3.8l1,9.9l36.4-3.8
	C45.5,147.3,45.3,144.7,45.3,142.1 M88.8,98.6c2.8,0,5.6,0.3,8.3,0.8l5.9-13.3l-9.1-4l-7.4,16.6C87.3,98.6,88,98.6,88.8,98.6
	 M130.2,128.9l4.4-1.4l-3.1-9.4l-5.5,1.8C127.8,122.6,129.2,125.7,130.2,128.9 M77.7,100l0.1-21.5h-0.2v0h-5.2l-4.5,0v0h-0.2v25.6
	C70.8,102.3,74.1,101,77.7,100 M47.4,128.7l-33.9-11.1l-3.1,9.4l35.1,11.5C45.7,135.1,46.4,131.8,47.4,128.7 M55,114.7L42.3,85.9
	l9.1-4l11.2,25.5C59.8,109.5,57.2,112,55,114.7"/>
<path class="st1" d="M91.6,170.4l24.2,21.9l6.7-7.4l-26.1-23.7C95.1,164.5,93.5,167.6,91.6,170.4 M27.4,179l-6.2,5.6l6.6,7.4
	l8.1-7.3C32.9,183.1,30,181.2,27.4,179 M99.1,145.9c0,0.7,0,1.4-0.1,2.2l36.8-3.8l-1-9.9l-36.4,3.8
	C98.9,140.7,99.1,143.3,99.1,145.9 M55.6,189.4c-2.8,0-5.6-0.3-8.3-0.8l-5.9,13.3l9.1,4l7.4-16.6C57.1,189.4,56.4,189.4,55.6,189.4
	 M14.2,159.1l-4.4,1.4l3.1,9.4l5.5-1.8C16.6,165.4,15.2,162.3,14.2,159.1 M66.8,188l-0.1,21.5h0.2v0h5.2l4.5,0v0h0.2v-25.6
	C73.7,185.7,70.3,187,66.8,188 M97,159.3l33.9,11.1l3.1-9.4L99,149.5C98.7,152.9,98,156.2,97,159.3 M89.4,173.3l12.7,28.8l-9.1,4
	l-11.2-25.5C84.6,178.5,87.2,176,89.4,173.3"/>
</svg>
