<?xml version="1.0" encoding="UTF-8"?><svg id="Layer_2" xmlns="http://www.w3.org/2000/svg" xmlns:xlink="http://www.w3.org/1999/xlink" width="112" height="24" viewBox="0 0 917.64 209.75"><defs><style>.cls-1{fill:url(#radial-gradient);}</style><radialGradient id="radial-gradient" cx="104.87" cy="104.87" fx="104.87" fy="104.87" r="104.87" gradientUnits="userSpaceOnUse"><stop offset=".33" stop-color="#ffab33"/><stop offset="1" stop-color="#ff473c"/></radialGradient></defs><g id="Layer_1-2"><path class="cls-1" d="m104.87,147.35l-52.48,30.87c-10.1,5.94-23.11,2.57-29.05-7.53-5.94-10.1-2.57-23.11,7.53-29.05,4.29-2.52,9.12-3.36,13.7-2.72l60.3,8.44h0Zm-30.03-12.44l-36.67-48.6c-2.78-3.69-6.79-6.51-11.61-7.76-11.34-2.94-22.92,3.87-25.87,15.21-2.94,11.34,3.87,22.92,15.21,25.87l58.94,15.29h0Zm-12.44-30.04l8.44-60.3c.64-4.57-.2-9.41-2.72-13.7-5.94-10.1-18.95-13.47-29.05-7.53-10.1,5.94-13.47,18.95-7.53,29.05l30.87,52.48h0Zm12.44-30.03l48.6-36.67c3.69-2.78,6.51-6.79,7.76-11.61,2.94-11.34-3.87-22.92-15.21-25.87-11.34-2.94-22.92,3.87-25.87,15.21l-15.29,58.94h0Zm30.04-12.44l60.3,8.44c4.57.64,9.41-.2,13.7-2.72,10.1-5.94,13.47-18.95,7.53-29.05-5.94-10.1-18.95-13.47-29.05-7.53l-52.48,30.87h0Zm30.03,12.44l36.67,48.6c2.78,3.69,6.79,6.51,11.61,7.76,11.34,2.94,22.92-3.87,25.87-15.21,2.94-11.34-3.87-22.92-15.21-25.87l-58.94-15.29h0Zm12.44,30.04l-8.44,60.3c-.64,4.57.2,9.41,2.72,13.7,5.94,10.1,18.95,13.47,29.05,7.53,10.1-5.94,13.47-18.95,7.53-29.05l-30.87-52.48h0Zm-12.44,30.03l-48.6,36.67c-3.69,2.78-6.51,6.79-7.76,11.61-2.94,11.34,3.87,22.92,15.21,25.87,11.34,2.94,22.92-3.87,25.87-15.21l15.29-58.94h0Z"/><path d="m586.44,165.98c-28.81,0-51.94-22.81-51.94-50.75s23.13-50.56,51.94-50.56,51.94,22.62,51.94,50.56-23.13,50.75-51.94,50.75Zm0-84.21c-18.2,0-32.79,14.83-32.79,33.45s14.6,33.64,32.79,33.64,32.79-14.83,32.79-33.64-14.59-33.45-32.79-33.45Z"/><path d="m460.54,163.8h-19.14v-58.16c0-14.06-9.1-23.57-22.75-23.57s-23.69,9.69-23.69,24.14v57.59h-19.14v-96.94h8.53c5.86,0,10.61,4.77,10.61,10.64h0c6.82-7.98,16.87-12.73,28.43-12.73,22.18,0,37.15,16.35,37.15,37.06v61.96Z"/><path d="m519.87,83.96c-12.51,0-21.61,9.7-21.61,24.71v55.12h-19.14v-96.94h7.01c6.6,0,11.94,5.36,11.94,11.98h0c4.74-7.79,12.51-12.73,23.12-12.73h6.64v17.87h-7.96Z"/><path d="m705.73,149.16c11.18,0,20.85-5.51,27.11-14.26l14.03,10.26c-9.48,12.55-22.94,20.91-41.13,20.91-29.38,0-51.94-22.62-51.94-50.56s22.56-50.75,51.94-50.75c18.2,0,31.66,8.36,41.13,21.1l-14.03,10.07c-6.26-8.55-15.92-14.07-27.11-14.07-18.2,0-32.79,14.64-32.79,33.64s14.6,33.64,32.79,33.64Z"/><path d="m777.75,49.94v59.68l34.45-37.73c2.93-3.21,7.07-5.04,11.41-5.04h15.93l-43.98,46.76,46.25,50.18h-17.19c-4.38,0-8.56-1.86-11.49-5.13l-35.39-39.35v44.48h-19.14V30.74h0c10.57,0,19.14,8.59,19.14,19.2Z"/><path d="m839.92,133.76h18.39c2.28,11.02,11.75,16.73,23.69,16.73,10.43,0,16.87-4.94,16.87-12.35,0-5.89-4.17-10.07-13.27-12.55l-17.82-4.37c-17.25-4.37-26.16-13.5-26.16-27.37,0-17.68,14.22-29.08,33.74-29.08,22.56,0,37.34,13.88,40,32.12h-18.39c-2.28-11.02-11.94-16.73-21.8-16.73-9.29,0-14.79,4.94-14.79,11.78,0,6.08,4.74,10.27,13.84,12.55l16.68,4.37c17.82,4.56,26.73,13.88,26.73,27.75,0,16.73-13.84,29.27-35.45,29.27-23.51,0-38.86-13.69-42.27-32.12Z"/><path d="m309.96,63.5c27.86,0,48.34,21.48,48.34,50.37v6.27h-78.67c2.65,15.78,15.73,27.56,32.04,27.56,11.18,0,20.66-4.56,27.86-14.26l13.84,10.26c-9.67,12.92-24.07,20.72-41.7,20.72-29,0-51.37-21.67-51.37-50.56,0-27.37,21.42-50.37,49.66-50.37Zm-29.95,41.44h58.95c-3.22-14.83-15.16-24.71-29.38-24.71s-26.16,9.88-29.57,24.71Z"/></g></svg>
