<?xml version="1.0" encoding="utf-8"?>
<!-- Generator: Adobe Illustrator 26.0.1, SVG Export Plug-In . SVG Version: 6.00 Build 0)  -->
<svg version="1.1" id="katman_1" xmlns="http://www.w3.org/2000/svg" xmlns:xlink="http://www.w3.org/1999/xlink" x="0px" y="0px"
	 viewBox="0 0 424.6 125.9" style="enable-background:new 0 0 424.6 125.9;" xml:space="preserve">
<style type="text/css">
	.st0{fill:#FFCC00;}
	.st1{fill-rule:evenodd;clip-rule:evenodd;fill:#FFCC00;}
	.st2{fill:#FFFFFF;}
</style>
<g>
	<g>
		<g>
			<path class="st0" d="M205.4,88.9c-2.1,2.8-5,3.1-6,3.1c-3.3,0-18-0.6-21.1-0.6c-1,0-5.4-0.1-8.2-3c-2.5,1.8-5.2,3.1-12,3.1
				c-4.2,0-25,0.1-25,0.1c-0.1,0-4.8-0.1-7-1.8c-1.9,1.3-3.2,1.8-6,1.8l-20.6,0.1c-3.8,0-5.8-1.3-7.7-3.7c-3.2,2.4-7.1,3.8-10.5,3.8
				c-7.8,0-55.9,0.2-55.9,0.2c-5.9,0-8,0-8.9,0c-2.8,0-5.3-0.4-6.9-3.2c-1.6-2.9-0.3-6.1,0.7-8.1c4.1-7.8,33.2-62.5,41.3-78
				c0.9-1.7,2-2.4,3.8-2.4h0.2c2,0,11.2,0,13.1,0h0c1.4,0,2.5,0.5,3,1.3C72,2.3,72.1,3,71.7,3.7c-0.2,0.4-36.3,68.5-36.8,69.4
				c-0.3,0.7-1.3,2.9-1,4.2c0.5,1.6,2.4,1.8,4.1,1.8l20-0.1c3.8,0.1,0.1-0.4,2-4.3c0,0,12.6-24.2,17.4-33.5c0.8-1.5,1.9-2.2,3.6-2.2
				c2.1,0,16.9,0,16.9,0l-0.8,1.4c-1.7,3-2.4,4.2-3.6,6.5l-2.9,5.3c-3.9,7.1-7.8,14.2-11.6,21.3c-0.7,1.3-1,2.3-0.9,3.4
				c0.1,1.2,1.3,2,2.5,2.4c1.1,0.2,2.4,0.3,3.5,0.3c5.1,0,9.2-2.4,12.2-7.1c1.4-2.1,13.7-23.8,18-31.6c0.8-1.5,1.9-2.1,3.6-2.1
				l11.1,0c1.1,0,2.7,0.1,3.4,1.2c0.4,0.7,0.4,1.5-0.2,2.6c-1.2,2.4-17.1,31.8-17.4,32.3c-0.6,1.3-0.7,2.8-0.2,3.5
				c0.4,0.6,1.2,1.1,2.6,1c1.1,0,5.6,0,6.9,0c2,0,2.4-1,3.4-2.7c0.2-0.3,27.9-52.8,39.5-74.1c1.1-2,2.5-2.8,4.7-2.8c1.7,0,11,0,11,0
				c1.4,0,2.3,0.4,2.8,1.2c0.6,1,0.4,2.3-0.5,3.9c-4.1,7.4-15.4,28.1-17.4,31.8c-0.3,0.6-0.9,2,1.7,2c0,0,15,0,18.8,0
				c1.5,0,3.1,0.1,4.2,0.4c4.6,1.3,7.2,4.1,6.1,8.7c-0.6,2.8-2,5.2-3.2,7.6l-0.1,0.2c-2.1,4-4.2,7.9-6.3,11.9l-4.1,7.6
				c-0.3,0.5-0.5,1-0.7,1.5c-0.5,1.4-0.3,2-0.2,2.2c0.2,0.3,0.9,0.5,2.1,0.5c0.9,0,2.6,0,3.7,0c2.1,0,3.5-0.9,4.4-2.7
				c2-3.9,4.1-7.8,6.1-11.7c2.1-4,10.5-20.4,12.2-23.7c0.4-0.9,1.6-2.6,4.1-2.7c0.5,0,35.2-0.1,35.2-0.1c2.9,0,5,0.9,6.3,2.6
				s1.5,4.2,0.7,6.9c-1.8,5.7-1.8,5.8-2.7,5.8l-18.7,0c0,0,0.7-4.3,0.7-4.8c0-1-1.7-2.1-4.4-2.1l-0.4,0c-4.9,0.7-6.1,2.9-9.3,8.6
				l-0.1,0.2c-3.5,6.4-5.6,10.4-8.2,15.5C215.6,71.5,209.4,83.8,205.4,88.9z M251.9,76c3.7-6.9,7.5-13.9,11.2-20.9l4.8-9
				c0.8-1.4,2.5-4.6,2.5-4.6c0.3-0.6,0.4-0.7-0.2-1.2l-2.2-1.7l19.1-0.1c0.9,0,2,0.1,2.4,0.9c0.4,0.9,0,1.6-0.4,2.3
				c-2.2,3.9-17.1,31.2-17.1,31.2c-0.2,0.4-0.4,0.7-0.6,1.1c-0.5,1.2-1,2.9-0.3,4c0.7,1,2.3,1.3,3.6,1.2l8.6,0c1.2,0,1.9,0,2.5-1.3
				c1.6-3.2,10.9-21.2,13.8-27.4c4-8.4,10.8-12.1,20.5-12.1l19.1,0c3.3,0,6,1.7,8.2,5.7l0.8,1.4l-8.1,0l-9.7,0
				c-6.1,0-11,2.5-13.3,6.9c-1.8,3.3-8.4,16.6-10.6,20.6c-0.4,0.7-0.8,1.5-0.9,2.3c-0.2,1.2,0,2,0.4,2.6c0.5,0.5,1.2,0.8,2.4,0.8
				c4.8,0,8.6,0,12.4,0l15.3,0c1.8,0,3.5-1.4,4.1-2.6c3.2-5.9,6.3-11.8,9.4-17.7c0,0,5.4-10.1,6.2-11.6c3.4-5.9,8.6-8.4,14.5-8.4
				l38.2-0.1c2.3,0,4.2,1,5.3,2.8c1.1,1.9,0.6,4.4-0.5,6.6c-2,3.8-14.4,26.9-19.1,35.7c-2.5,4.7-7.9,7.6-13.9,7.6
				c-3.8,0.1-28,0.1-31.8,0.1l-1.6,0c-0.7,0-4.1-0.1-7-2c-2.8,1.8-6,2-8.3,2c-4.4,0-39.2,0.1-39.2,0.1c-4.7,0-7.2-1.4-8.3-2.2
				c-1.3,0.7-4.5,2.2-7.4,2.3c-0.2,0-18.3,0-20.1,0l0,0c-2.4-0.3-4.6-1-6.2-2.2C247.1,86,248.7,81.9,251.9,76z M164.6,46.2
				c-1.7,0-2.7,1.7-3.4,3c-4.7,8.8-8,15-12.7,24.1c-1.6,3.2-1.4,4.4-1.1,4.9c0.4,0.6,1.4,0.9,3,0.9h0.8c6.4,0,9.9,0,14.1-5.8
				c4.7-7.6,7.1-12.1,10.5-18.2c0.9-1.6,1.8-3.3,2.8-5.2c0.9-1.6,2-3.4,1.3-3.7C176.9,46.2,167.3,46.2,164.6,46.2z M386.9,45.2
				c-5.7,0-11.5,0.8-14.6,6.7c-4.6,8.7-10.4,20.5-10.9,21.7c-1.1,2.5-1,3.3-0.9,3.5c0.2,0.4,1.2,0.8,4.1,0.8l8.6,0
				c4.9-0.1,5-2,7.5-5.8c0.8-1.2,7-12.8,9.7-17.8l0.2-0.4c1.2-2.3,3.3-6.2,2.4-7.8c-0.3-0.6-1.1-0.9-2.3-0.9c0,0,0,0-0.1,0
				c-0.5,0-1.1,0-1.8,0C388.4,45.2,387.7,45.2,386.9,45.2z"/>
			<path class="st0" d="M283.2,35.1c-0.4,0-0.7,0-1.1,0c-2.4-0.2-4.2-1.2-5.5-2.7c-1.2-1.5-1.7-3.6-1.3-5.8
				c1-6.7,9.4-13.5,16.6-13.5c0.6,0,1.2,0,1.8,0.1c2.2,0.4,4,1.5,5.1,3.1c1.1,1.7,1.4,3.8,0.9,6C298.2,29,290.3,35.1,283.2,35.1
				L283.2,35.1z"/>
		</g>
		<path class="st1" d="M418.6,32.3h0.6c0.7,0,1,0.2,1.1,0.8c0.2,0.6,0.2,1,0.4,1.2h1.3c-0.1-0.2-0.2-0.5-0.4-1.2
			c-0.2-0.7-0.4-1.1-0.9-1.2v-0.1c0.6-0.2,1.1-0.6,1.1-1.2c0-0.5-0.2-0.9-0.5-1.1c-0.4-0.2-0.8-0.4-1.8-0.4c-0.8,0-1.5,0.1-2,0.2
			v5.1h1.2L418.6,32.3L418.6,32.3z M418.6,29.9c0.1,0,0.3-0.1,0.7-0.1c0.8,0,1.1,0.3,1.1,0.8c0,0.5-0.5,0.8-1.2,0.8h-0.6L418.6,29.9
			L418.6,29.9z M419.4,26.5c-3,0-5.3,2.3-5.3,5.1c0,2.9,2.4,5.2,5.3,5.2c3,0,5.3-2.3,5.3-5.2C424.6,28.8,422.4,26.5,419.4,26.5
			L419.4,26.5z M419.4,27.5c2.3,0,4,1.9,4,4.1c0,2.3-1.7,4.1-3.9,4.1c-2.3,0-4-1.8-4-4.1C415.4,29.4,417.1,27.5,419.4,27.5
			L419.4,27.5z"/>
	</g>
	<g>
		<path class="st2" d="M39.4,122l-2.3,3.9H3c-1.1,0-1.8-0.1-2.3-0.4c-0.5-0.3-0.7-0.7-0.7-1.2c0-0.8,0.1-1.7,0.4-2.8
			s0.7-2.1,1.2-3.2c0.5-1.1,1.1-2.2,1.7-3.4c0.6-1.2,1.3-2.2,2-3.3s1.4-2,2.2-3c0.8-0.9,1.5-1.7,2.2-2.3c0.4-0.4,0.9-0.8,1.4-1
			s0.9-0.5,1.4-0.6s1-0.3,1.5-0.3s1.1-0.1,1.6-0.1h13.8c1.1,0,1.8,0.1,2.3,0.4c0.5,0.3,0.7,0.7,0.7,1.2c0,0.7-0.1,1.5-0.3,2.4
			c-0.2,0.9-0.5,1.8-0.9,2.8c-0.4,1-0.9,2-1.4,3c-0.5,1-1.1,2-1.7,3s-1.2,1.9-1.9,2.7s-1.3,1.6-1.9,2.3L39.4,122L39.4,122z
			 M15.4,122c0.3,0,0.6,0,0.9-0.1s0.6-0.2,0.9-0.5c0.5-0.3,1.1-0.8,1.6-1.5c0.6-0.7,1.1-1.5,1.6-2.4s1-1.8,1.5-2.8s0.9-1.9,1.3-2.7
			c0.4-0.8,0.7-1.6,0.8-2.2c0.2-0.6,0.3-1.1,0.3-1.3c0-0.2-0.1-0.3-0.2-0.4s-0.4-0.2-0.7-0.2h-6.2c-0.6,0-1.3,0.3-2,0.8
			c-0.5,0.3-1,0.9-1.6,1.6s-1.1,1.5-1.6,2.4s-1,1.8-1.5,2.7c-0.5,1-0.9,1.8-1.3,2.7c-0.4,0.8-0.7,1.6-0.9,2.2S8,121.4,8,121.6
			c0,0.3,0.3,0.4,1,0.4H15.4z"/>
		<path class="st2" d="M41.5,122h14.3l-2.2,3.9H34.9c-0.5,0-0.8-0.1-1.1-0.3c-0.3-0.2-0.4-0.5-0.4-0.8c0-0.2,0.1-0.5,0.2-0.7
			l5.8-10.3h4.4c0.5,0,0.9,0.1,1.1,0.3c0.3,0.2,0.4,0.5,0.4,0.8c0,0.2-0.1,0.5-0.2,0.7L41.5,122z M42.5,108.3h4.4
			c0.5,0,0.9,0.1,1.1,0.3c0.3,0.2,0.4,0.5,0.4,0.8c0,0.2-0.1,0.5-0.2,0.7l-1.2,2.2h-4.4c-0.5,0-0.8-0.1-1.1-0.3
			c-0.3-0.2-0.4-0.5-0.4-0.8c0-0.2,0.1-0.5,0.2-0.7L42.5,108.3z"/>
		<path class="st2" d="M58.3,122h14.3l-2.2,3.9H51.7c-0.5,0-0.9-0.1-1.1-0.3c-0.3-0.2-0.4-0.5-0.4-0.8c0-0.2,0.1-0.5,0.2-0.7
			l9.7-17.2h4.4c0.5,0,0.9,0.1,1.1,0.3c0.3,0.2,0.4,0.5,0.4,0.8c0,0.2-0.1,0.5-0.2,0.7L58.3,122z"/>
		<path class="st2" d="M90.6,122h14.3l-2.2,3.9H84c-0.5,0-0.9-0.1-1.1-0.3c-0.3-0.2-0.4-0.5-0.4-0.8c0-0.2,0.1-0.5,0.2-0.7l5.8-10.3
			h4.4c0.5,0,0.9,0.1,1.1,0.3c0.3,0.2,0.4,0.5,0.4,0.8c0,0.2-0.1,0.5-0.2,0.7L90.6,122z M91.7,108.3H96c0.5,0,0.9,0.1,1.1,0.3
			c0.3,0.2,0.4,0.5,0.4,0.8c0,0.2-0.1,0.5-0.2,0.7l-1.2,2.2h-4.4c-0.5,0-0.9-0.1-1.1-0.3c-0.3-0.2-0.4-0.5-0.4-0.8
			c0-0.2,0.1-0.5,0.2-0.7L91.7,108.3z"/>
		<path class="st2" d="M98.5,125.9l6.8-12.1h5c0.9,0,1.3,0.2,1.3,0.7c0.7-0.3,1.5-0.5,2.3-0.7c0.8-0.2,1.6-0.2,2.6-0.2
			c1.3,0,2.3,0.2,3.1,0.5s1.1,0.8,1.1,1.5c0,0.7-0.3,1.5-0.8,2.4l-2.2,4H132l-2.2,3.9h-18.4c-0.4,0-0.9-0.1-1.3-0.2
			c-0.4-0.2-0.6-0.4-0.6-0.8c0-0.2,0.1-0.4,0.2-0.5l3-5.3c0.1-0.2,0.1-0.3,0.2-0.5s0.1-0.2,0.1-0.4c0-0.2-0.1-0.4-0.2-0.5
			s-0.4-0.2-0.7-0.2c-0.6,0-1.2,0.2-1.8,0.6s-1.1,1-1.6,1.8l-2.5,4.4c-0.2,0.3-0.3,0.6-0.5,0.8s-0.4,0.3-0.6,0.5s-0.5,0.2-0.8,0.2
			s-0.7,0.1-1.1,0.1L98.5,125.9L98.5,125.9z"/>
		<path class="st2" d="M128.6,125.9c-0.5,0-0.8-0.1-1.1-0.3c-0.3-0.2-0.4-0.5-0.4-0.8c0-0.2,0.1-0.5,0.2-0.7l3.6-6.4h-3.2l2.2-3.9
			h3.2l2.7-4.8h4.3c0.5,0,0.9,0.1,1.1,0.3c0.3,0.2,0.4,0.5,0.4,0.8c0,0.2-0.1,0.5-0.2,0.7l-1.7,3h6.1l-2.2,3.9h-6.1l-2.4,4.3h20
			l-2.2,3.9L128.6,125.9L128.6,125.9z"/>
		<path class="st2" d="M149.3,121.1l1.8-3.2h1.1c0.7-1.1,1.4-1.9,2.1-2.5c0.7-0.6,1.5-1,2.3-1.3c0.8-0.3,1.7-0.4,2.7-0.5
			c1,0,2-0.1,3.1-0.1c1.1,0,2,0,2.9,0.1c0.9,0,1.7,0.2,2.4,0.3c0.7,0.1,1.2,0.4,1.6,0.7c0.4,0.3,0.6,0.7,0.6,1.1
			c0,0.2-0.1,0.5-0.2,0.8s-0.3,0.6-0.4,0.9c-0.2,0.3-0.3,0.6-0.5,0.9c-0.2,0.3-0.3,0.5-0.4,0.7c-0.4,0.7-0.9,1.2-1.5,1.5
			c-0.6,0.3-1.3,0.5-2.1,0.5H157c0,0.1-0.1,0.2-0.1,0.3c0,0.1,0,0.2,0,0.2c0,0.2,0.1,0.3,0.4,0.3c0.3,0.1,0.6,0.1,1,0.1H181
			l-2.2,3.9H153c-1.1,0-1.9-0.2-2.5-0.7c-0.6-0.4-0.9-1-0.9-1.8c0-0.6,0.2-1.4,0.7-2.4L149.3,121.1L149.3,121.1z M161,117.9
			c0.3,0,0.5,0,0.8,0c0.2,0,0.4-0.1,0.5-0.2c0.2-0.1,0.2-0.3,0.2-0.5c0-0.1-0.1-0.2-0.3-0.3c-0.2,0-0.5,0-0.9,0
			c-0.5,0-0.9,0.1-1.4,0.2s-0.8,0.3-1,0.7l-0.1,0.2L161,117.9L161,117.9z"/>
		<path class="st2" d="M190.6,115.7c1.7,0,3.1,0.2,4.1,0.5c1,0.3,1.5,0.9,1.5,1.8c0,0.6-0.3,1.5-0.9,2.6l-0.9,1.5h14.3l-2.2,3.9
			h-18.4c-0.4,0-0.9-0.1-1.3-0.2c-0.4-0.2-0.6-0.4-0.6-0.8c0-0.2,0-0.4,0.2-0.5l2.2-3.8c0.2-0.3,0.3-0.6,0.3-0.8
			c0-0.2-0.1-0.4-0.3-0.5s-0.5-0.2-0.9-0.2H186l-3,5.4c-0.2,0.3-0.3,0.6-0.5,0.8c-0.2,0.2-0.4,0.3-0.6,0.5s-0.5,0.2-0.8,0.2
			s-0.7,0.1-1.1,0.1h-4.5l4.4-7.8h-1.3l2.4-4.2h5.6c0.5,0,0.9,0.1,1.1,0.3c0.3,0.2,0.4,0.5,0.4,0.8c0,0.2-0.1,0.5-0.2,0.7
			L190.6,115.7L190.6,115.7z"/>
		<path class="st2" d="M201.9,125.9l6.8-12.1h5c0.9,0,1.3,0.2,1.3,0.7c0.7-0.3,1.5-0.5,2.3-0.7c0.8-0.2,1.6-0.2,2.6-0.2
			c1.3,0,2.3,0.2,3.1,0.5s1.1,0.8,1.1,1.5c0,0.7-0.3,1.5-0.8,2.4l-2.2,4h14.3l-2.2,3.9h-18.4c-0.4,0-0.9-0.1-1.3-0.2
			c-0.4-0.2-0.6-0.4-0.6-0.8c0-0.2,0-0.4,0.2-0.5l3-5.3c0.1-0.2,0.1-0.3,0.2-0.5c0-0.1,0.1-0.2,0.1-0.4c0-0.2-0.1-0.4-0.2-0.5
			s-0.4-0.2-0.7-0.2c-0.6,0-1.2,0.2-1.8,0.6s-1.1,1-1.6,1.8l-2.5,4.4c-0.2,0.3-0.3,0.6-0.5,0.8s-0.4,0.3-0.6,0.5s-0.5,0.2-0.8,0.2
			s-0.7,0.1-1.1,0.1L201.9,125.9L201.9,125.9z"/>
		<path class="st2" d="M233.8,125.9c-1.3,0-2.1-0.2-2.7-0.6c-0.5-0.4-0.8-1-0.8-1.6c0-0.4,0.1-0.8,0.2-1.2s0.3-0.9,0.6-1.3l1.8-3.1
			c0.8-1.4,1.9-2.5,3.3-3.3c1.4-0.8,3-1.2,4.9-1.2c0.9,0,1.7,0.1,2.3,0.3c0.6,0.2,1.1,0.5,1.6,0.9l0.5-1h4.4c0.5,0,0.9,0.1,1.1,0.3
			c0.3,0.2,0.4,0.5,0.4,0.8c0,0.2-0.1,0.4-0.2,0.7l-3.6,6.4h14.3l-2.2,3.9h-17.9c-0.5,0-0.9-0.1-1.2-0.3c-0.3-0.2-0.4-0.5-0.4-0.9
			c-0.4,0.2-0.9,0.5-1.4,0.6c-0.5,0.2-1,0.3-1.5,0.4s-1,0.2-1.4,0.2c-0.5,0-0.9,0.1-1.3,0.1L233.8,125.9L233.8,125.9z M243.2,117.8
			c-0.2-0.1-0.4-0.2-0.6-0.3c-0.2-0.1-0.5-0.1-1-0.1c-0.5,0-1,0.1-1.4,0.2s-0.7,0.4-0.9,0.8l-1.3,2.3c-0.1,0.2-0.2,0.4-0.3,0.6
			c-0.1,0.2-0.1,0.3-0.1,0.5s0.1,0.3,0.4,0.3s0.5,0.1,0.9,0.1c0.6,0,1.1-0.1,1.5-0.3s0.7-0.4,0.9-0.7L243.2,117.8z"/>
		<path class="st2" d="M258.5,125.9c-0.5,0-0.9-0.1-1.1-0.3c-0.3-0.2-0.4-0.5-0.4-0.8c0-0.2,0.1-0.5,0.2-0.7l3.6-6.4h-3.2l2.2-3.9
			h3.2l2.7-4.8h4.3c0.5,0,0.9,0.1,1.1,0.3c0.3,0.2,0.4,0.5,0.4,0.8c0,0.2-0.1,0.5-0.2,0.7l-1.7,3h6.1l-2.2,3.9h-6.1l-2.4,4.3h20
			l-2.2,3.9L258.5,125.9L258.5,125.9z"/>
		<path class="st2" d="M286.9,122h14.3l-2.2,3.9h-18.7c-0.5,0-0.9-0.1-1.1-0.3c-0.3-0.2-0.4-0.5-0.4-0.8c0-0.2,0.1-0.5,0.2-0.7
			l5.8-10.3h4.4c0.5,0,0.9,0.1,1.1,0.3c0.3,0.2,0.4,0.5,0.4,0.8c0,0.2-0.1,0.5-0.2,0.7L286.9,122z M287.9,108.3h4.4
			c0.5,0,0.9,0.1,1.1,0.3c0.3,0.2,0.4,0.5,0.4,0.8c0,0.2-0.1,0.5-0.2,0.7l-1.2,2.2H288c-0.5,0-0.9-0.1-1.1-0.3
			c-0.3-0.2-0.4-0.5-0.4-0.8c0-0.2,0.1-0.5,0.2-0.7L287.9,108.3z"/>
		<path class="st2" d="M298.8,118c0.6-1,1.2-1.8,1.9-2.4c0.7-0.6,1.5-1,2.4-1.3s1.8-0.5,2.8-0.5s2.1-0.1,3.2-0.1
			c1.2,0,2.3,0,3.2,0.1s1.7,0.1,2.3,0.3s1.1,0.3,1.4,0.6s0.5,0.6,0.5,1.1c0,0.7-0.3,1.5-0.8,2.4l-2.2,4h14.3l-2.2,3.9h-26.1
			c-1,0-1.8-0.2-2.3-0.7c-0.5-0.4-0.8-1-0.8-1.8c0-0.8,0.4-1.8,1-3L298.8,118z M308.4,118.9c0.2-0.3,0.2-0.6,0.2-0.8
			c0-0.2-0.1-0.4-0.2-0.5c-0.1-0.1-0.5-0.2-0.9-0.2c-0.6,0-1.1,0.1-1.5,0.4c-0.5,0.3-0.8,0.6-1,1.1l-1,1.8c-0.2,0.3-0.2,0.6-0.2,0.8
			c0,0.2,0.1,0.4,0.2,0.5s0.4,0.2,0.9,0.2c0.6,0,1.1-0.1,1.6-0.4s0.8-0.6,1-1.1L308.4,118.9z"/>
		<path class="st2" d="M320.7,125.9l6.8-12.1h5c0.9,0,1.3,0.2,1.3,0.7c0.7-0.3,1.5-0.5,2.3-0.7c0.8-0.2,1.6-0.2,2.6-0.2
			c1.3,0,2.3,0.2,3.1,0.5s1.1,0.8,1.1,1.5c0,0.7-0.3,1.5-0.8,2.4l-2.2,4h14.3l-2.2,3.9h-18.4c-0.4,0-0.9-0.1-1.3-0.2
			c-0.4-0.2-0.6-0.4-0.6-0.8c0-0.2,0-0.4,0.2-0.5l3-5.3c0.1-0.2,0.1-0.3,0.2-0.5c0-0.1,0.1-0.2,0.1-0.4c0-0.2-0.1-0.4-0.2-0.5
			s-0.4-0.2-0.7-0.2c-0.6,0-1.2,0.2-1.8,0.6s-1.1,1-1.6,1.8l-2.5,4.4c-0.2,0.3-0.3,0.6-0.5,0.8s-0.4,0.3-0.6,0.5s-0.5,0.2-0.8,0.2
			s-0.7,0.1-1.1,0.1L320.7,125.9L320.7,125.9z"/>
		<path class="st2" d="M352.5,125.9c-1.3,0-2.1-0.2-2.7-0.6c-0.5-0.4-0.8-1-0.8-1.6c0-0.4,0.1-0.8,0.2-1.2s0.3-0.9,0.6-1.3l1.8-3.1
			c0.8-1.4,1.9-2.5,3.3-3.3c1.4-0.8,3-1.2,4.9-1.2c0.9,0,1.7,0.1,2.3,0.3c0.6,0.2,1.1,0.5,1.6,0.9l0.5-1h4.4c0.5,0,0.9,0.1,1.1,0.3
			c0.3,0.2,0.4,0.5,0.4,0.8c0,0.2-0.1,0.4-0.2,0.7l-3.6,6.4h14.3l-2.2,3.9h-17.9c-0.5,0-0.9-0.1-1.2-0.3c-0.3-0.2-0.4-0.5-0.4-0.9
			c-0.4,0.2-0.9,0.5-1.4,0.6c-0.5,0.2-1,0.3-1.5,0.4s-1,0.2-1.4,0.2c-0.5,0-0.9,0.1-1.3,0.1L352.5,125.9L352.5,125.9z M362,117.8
			c-0.2-0.1-0.4-0.2-0.6-0.3c-0.2-0.1-0.5-0.1-1-0.1c-0.5,0-1,0.1-1.4,0.2s-0.7,0.4-0.9,0.8l-1.3,2.3c-0.1,0.2-0.2,0.4-0.3,0.6
			c-0.1,0.2-0.1,0.3-0.1,0.5s0.1,0.3,0.4,0.3s0.5,0.1,0.9,0.1c0.6,0,1.1-0.1,1.5-0.3s0.7-0.4,0.9-0.7L362,117.8z"/>
		<path class="st2" d="M382.6,122h6.3l-2.2,3.9H376c-0.5,0-0.9-0.1-1.1-0.3c-0.3-0.2-0.4-0.5-0.4-0.8c0-0.2,0.1-0.5,0.2-0.7
			l9.7-17.2h4.4c0.5,0,0.9,0.1,1.1,0.3c0.3,0.2,0.4,0.5,0.4,0.8c0,0.2-0.1,0.5-0.2,0.7L382.6,122z"/>
	</g>
</g>
</svg>
